<?xml version="1.0" encoding="utf-8"?>
<!-- Generator: Adobe Illustrator 27.5.0, SVG Export Plug-In . SVG Version: 6.00 Build 0)  -->
<svg version="1.1" id="Layer_1" xmlns="http://www.w3.org/2000/svg" xmlns:xlink="http://www.w3.org/1999/xlink" x="0px" y="0px"
	 viewBox="0 0 500 500" style="enable-background:new 0 0 500 500;" xml:space="preserve">
<g>
	<path d="M250,125.5c13,0,24.3,7,30,18.7c13.6,27.6,39.9,46.7,70.4,51.1c12.9,1.9,23,10.4,27,22.8c4,12.4,0.9,25.2-8.5,34.3
		c-22,21.5-32.1,52.4-26.9,82.7c2.2,12.7-2.7,21.7-7.2,27c-6.5,7.7-16.1,12.3-25.8,12.3c-5.3,0-10.6-1.3-15.6-4
		c-13.4-7-28.4-10.7-43.5-10.7c-15.1,0-30.1,3.7-43.5,10.7c-5,2.6-10.3,4-15.6,4c-9.7,0-19.4-4.6-25.8-12.3
		c-4.5-5.3-9.3-14.3-7.2-27c5.2-30.3-4.8-61.3-26.9-82.7c-9.3-9.1-12.5-21.9-8.5-34.3c4-12.4,14.1-20.9,27-22.8
		c30.5-4.4,56.8-23.5,70.4-51.1C225.7,132.5,237,125.5,250,125.5 M250,95.5c-22.6,0-45.3,11.8-56.9,35.4v0
		c-9.2,18.7-27.1,31.7-47.8,34.7h0c-52.1,7.6-72.9,71.5-35.2,108.3l0,0c15,14.6,21.8,35.6,18.3,56.2v0c-7,41,25.6,74.3,62.6,74.3
		c9.8,0,19.8-2.3,29.6-7.4l0,0c9.2-4.9,19.4-7.3,29.5-7.3s20.3,2.4,29.5,7.3l0,0c9.7,5.1,19.8,7.4,29.6,7.4
		c37,0,69.6-33.3,62.6-74.3v0c-3.5-20.6,3.3-41.6,18.3-56.2l0,0c37.7-36.7,16.9-100.7-35.2-108.3h0c-20.7-3-38.5-16-47.8-34.7v0
		C295.3,107.3,272.6,95.5,250,95.5L250,95.5z"/>
</g>
</svg>
