<?xml version="1.0" encoding="utf-8"?>
<!-- Generator: Adobe Illustrator 27.5.0, SVG Export Plug-In . SVG Version: 6.00 Build 0)  -->
<svg version="1.1" id="Layer_1" xmlns="http://www.w3.org/2000/svg" xmlns:xlink="http://www.w3.org/1999/xlink" x="0px" y="0px"
	 viewBox="0 0 500 500" style="enable-background:new 0 0 500 500;" xml:space="preserve">
<g>
	<path d="M309.1,389.5c-7.8,0-15.4-1.9-22.6-5.7c-11.2-5.9-23.8-9-36.5-9c-12.7,0-25.3,3.1-36.5,9c-7.2,3.8-14.8,5.7-22.6,5.7
		c-14.1,0-28-6.6-37.3-17.6c-9.2-10.9-12.9-24.9-10.5-39.2c4.4-25.5-4.1-51.4-22.6-69.5c-13.5-13.2-18.1-31.7-12.3-49.7
		c5.8-17.9,20.5-30.3,39.1-33c25.6-3.7,47.7-19.8,59.1-42.9c8.4-16.9,24.6-27,43.5-27c18.9,0,35.1,10.1,43.5,27
		c11.4,23.2,33.5,39.2,59.1,42.9c18.7,2.7,33.3,15,39.1,33c5.8,17.9,1.2,36.5-12.3,49.7c-18.5,18-26.9,44-22.6,69.5
		c2.5,14.4-1.3,28.3-10.5,39.2C337.1,382.9,323.2,389.5,309.1,389.5z"/>
	<path d="M250,125.5c13,0,24.3,7,30,18.7c13.6,27.6,39.9,46.7,70.4,51.1c12.9,1.9,23,10.4,27,22.8c4,12.4,0.9,25.2-8.5,34.3
		c-22,21.5-32.1,52.4-26.9,82.7c2.2,12.7-2.7,21.7-7.2,27c-6.5,7.7-16.1,12.3-25.8,12.3c-5.3,0-10.6-1.3-15.6-4
		c-13.4-7-28.4-10.7-43.5-10.7c-15.1,0-30.1,3.7-43.5,10.7c-5,2.6-10.3,4-15.6,4c-9.7,0-19.4-4.6-25.8-12.3
		c-4.5-5.3-9.3-14.3-7.2-27c5.2-30.3-4.8-61.3-26.9-82.7c-9.3-9.1-12.5-21.9-8.5-34.3c4-12.4,14.1-20.9,27-22.8
		c30.5-4.4,56.8-23.5,70.4-51.1C225.7,132.5,237,125.5,250,125.5 M250,95.5c-22.6,0-45.3,11.8-56.9,35.4v0
		c-9.2,18.7-27.1,31.7-47.8,34.7h0c-52.1,7.6-72.9,71.5-35.2,108.3l0,0c15,14.6,21.8,35.6,18.3,56.2v0c-7,41,25.6,74.3,62.6,74.3
		c9.8,0,19.8-2.3,29.6-7.4l0,0c9.2-4.9,19.4-7.3,29.5-7.3s20.3,2.4,29.5,7.3l0,0c9.7,5.1,19.8,7.4,29.6,7.4
		c37,0,69.6-33.3,62.6-74.3v0c-3.5-20.6,3.3-41.6,18.3-56.2l0,0c37.7-36.7,16.9-100.7-35.2-108.3h0c-20.7-3-38.5-16-47.8-34.7v0
		C295.3,107.3,272.6,95.5,250,95.5L250,95.5z"/>
</g>
</svg>
